<mxfile host="app.diagrams.net" modified="2022-08-08T07:26:18.116Z" agent="5.0 (Macintosh; Intel Mac OS X 10_15_7) AppleWebKit/537.36 (KHTML, like Gecko) Chrome/103.0.0.0 Safari/537.36" etag="51ZN2QX-159wy6scLI4p" version="20.2.3" type="github">
  <diagram id="xP7votodyLcGqL2QUFDL" name="Page-1">
    <mxGraphModel dx="1868" dy="659" grid="1" gridSize="10" guides="1" tooltips="1" connect="1" arrows="1" fold="1" page="1" pageScale="1" pageWidth="850" pageHeight="1100" math="0" shadow="0">
      <root>
        <mxCell id="0" />
        <mxCell id="1" parent="0" />
        <mxCell id="4MtWbJCe0Lgqd9_Smaac-1" value="&lt;font style=&quot;font-size: 17px;&quot;&gt;EVMExecStates&lt;/font&gt;" style="rounded=1;whiteSpace=wrap;html=1;fillColor=#f5f5f5;fontColor=#333333;strokeColor=#666666;" vertex="1" parent="1">
          <mxGeometry x="280" y="40" width="160" height="60" as="geometry" />
        </mxCell>
        <mxCell id="4MtWbJCe0Lgqd9_Smaac-3" value="SuccessStep" style="rounded=1;whiteSpace=wrap;html=1;fontSize=17;fillColor=#d5e8d4;strokeColor=#82b366;" vertex="1" parent="1">
          <mxGeometry x="80" y="200" width="120" height="60" as="geometry" />
        </mxCell>
        <mxCell id="4MtWbJCe0Lgqd9_Smaac-4" value="ReturnStep" style="rounded=1;whiteSpace=wrap;html=1;fontSize=17;fillColor=#f8cecc;strokeColor=#b85450;" vertex="1" parent="1">
          <mxGeometry x="520" y="200" width="120" height="60" as="geometry" />
        </mxCell>
        <mxCell id="4MtWbJCe0Lgqd9_Smaac-5" value="ExecStep" style="rounded=1;whiteSpace=wrap;html=1;fontSize=17;" vertex="1" parent="1">
          <mxGeometry x="-80" y="340" width="120" height="60" as="geometry" />
        </mxCell>
        <mxCell id="4MtWbJCe0Lgqd9_Smaac-6" value="ExecMetaStep" style="rounded=1;whiteSpace=wrap;html=1;fontSize=17;" vertex="1" parent="1">
          <mxGeometry x="80" y="340" width="120" height="60" as="geometry" />
        </mxCell>
        <mxCell id="4MtWbJCe0Lgqd9_Smaac-7" value="ExecSubStep" style="rounded=1;whiteSpace=wrap;html=1;fontSize=17;" vertex="1" parent="1">
          <mxGeometry x="240" y="340" width="120" height="60" as="geometry" />
        </mxCell>
        <mxCell id="4MtWbJCe0Lgqd9_Smaac-8" value="ExplicitReturn" style="rounded=1;whiteSpace=wrap;html=1;fontSize=17;" vertex="1" parent="1">
          <mxGeometry x="440" y="340" width="120" height="60" as="geometry" />
        </mxCell>
        <mxCell id="4MtWbJCe0Lgqd9_Smaac-9" value="Error" style="rounded=1;whiteSpace=wrap;html=1;fontSize=17;" vertex="1" parent="1">
          <mxGeometry x="600" y="340" width="120" height="60" as="geometry" />
        </mxCell>
        <mxCell id="4MtWbJCe0Lgqd9_Smaac-10" value="" style="endArrow=classic;html=1;rounded=0;fontSize=17;strokeWidth=2;exitX=0.5;exitY=1;exitDx=0;exitDy=0;entryX=0.5;entryY=0;entryDx=0;entryDy=0;" edge="1" parent="1" source="4MtWbJCe0Lgqd9_Smaac-1" target="4MtWbJCe0Lgqd9_Smaac-3">
          <mxGeometry width="50" height="50" relative="1" as="geometry">
            <mxPoint x="400" y="390" as="sourcePoint" />
            <mxPoint x="450" y="340" as="targetPoint" />
          </mxGeometry>
        </mxCell>
        <mxCell id="4MtWbJCe0Lgqd9_Smaac-11" value="" style="endArrow=classic;html=1;rounded=0;fontSize=17;strokeWidth=2;exitX=0.5;exitY=1;exitDx=0;exitDy=0;entryX=0.5;entryY=0;entryDx=0;entryDy=0;" edge="1" parent="1" source="4MtWbJCe0Lgqd9_Smaac-1" target="4MtWbJCe0Lgqd9_Smaac-4">
          <mxGeometry width="50" height="50" relative="1" as="geometry">
            <mxPoint x="370" y="110" as="sourcePoint" />
            <mxPoint x="150" y="210" as="targetPoint" />
          </mxGeometry>
        </mxCell>
        <mxCell id="4MtWbJCe0Lgqd9_Smaac-12" value="" style="endArrow=classic;html=1;rounded=0;fontSize=17;strokeWidth=2;exitX=0.5;exitY=1;exitDx=0;exitDy=0;entryX=0.5;entryY=0;entryDx=0;entryDy=0;" edge="1" parent="1" source="4MtWbJCe0Lgqd9_Smaac-3" target="4MtWbJCe0Lgqd9_Smaac-5">
          <mxGeometry width="50" height="50" relative="1" as="geometry">
            <mxPoint x="370" y="110" as="sourcePoint" />
            <mxPoint x="150" y="210" as="targetPoint" />
          </mxGeometry>
        </mxCell>
        <mxCell id="4MtWbJCe0Lgqd9_Smaac-13" value="" style="endArrow=classic;html=1;rounded=0;fontSize=17;strokeWidth=2;exitX=0.5;exitY=1;exitDx=0;exitDy=0;entryX=0.5;entryY=0;entryDx=0;entryDy=0;" edge="1" parent="1" source="4MtWbJCe0Lgqd9_Smaac-3" target="4MtWbJCe0Lgqd9_Smaac-7">
          <mxGeometry width="50" height="50" relative="1" as="geometry">
            <mxPoint x="150" y="270" as="sourcePoint" />
            <mxPoint x="-10" y="310" as="targetPoint" />
          </mxGeometry>
        </mxCell>
        <mxCell id="4MtWbJCe0Lgqd9_Smaac-14" value="" style="endArrow=classic;html=1;rounded=0;fontSize=17;strokeWidth=2;exitX=0.5;exitY=1;exitDx=0;exitDy=0;entryX=0.5;entryY=0;entryDx=0;entryDy=0;" edge="1" parent="1" source="4MtWbJCe0Lgqd9_Smaac-3" target="4MtWbJCe0Lgqd9_Smaac-6">
          <mxGeometry width="50" height="50" relative="1" as="geometry">
            <mxPoint x="150" y="270" as="sourcePoint" />
            <mxPoint x="310" y="350" as="targetPoint" />
          </mxGeometry>
        </mxCell>
        <mxCell id="4MtWbJCe0Lgqd9_Smaac-15" value="" style="endArrow=classic;html=1;rounded=0;fontSize=17;strokeWidth=2;exitX=0.5;exitY=1;exitDx=0;exitDy=0;entryX=0.5;entryY=0;entryDx=0;entryDy=0;" edge="1" parent="1" source="4MtWbJCe0Lgqd9_Smaac-4" target="4MtWbJCe0Lgqd9_Smaac-8">
          <mxGeometry width="50" height="50" relative="1" as="geometry">
            <mxPoint x="150" y="270" as="sourcePoint" />
            <mxPoint x="310" y="350" as="targetPoint" />
          </mxGeometry>
        </mxCell>
        <mxCell id="4MtWbJCe0Lgqd9_Smaac-16" value="" style="endArrow=classic;html=1;rounded=0;fontSize=17;strokeWidth=2;entryX=0.5;entryY=0;entryDx=0;entryDy=0;" edge="1" parent="1" target="4MtWbJCe0Lgqd9_Smaac-9">
          <mxGeometry width="50" height="50" relative="1" as="geometry">
            <mxPoint x="580" y="260" as="sourcePoint" />
            <mxPoint x="510" y="350" as="targetPoint" />
          </mxGeometry>
        </mxCell>
      </root>
    </mxGraphModel>
  </diagram>
</mxfile>
